<svg preserveAspectRatio="none" width="100%" height="100%" overflow="visible" style="display: block;" viewBox="0 0 23.1714 25" fill="none" xmlns="http://www.w3.org/2000/svg">
<path id="Vector" d="M8.7519 7.38752C7.06655 7.38752 5.50472 7.91624 4.2223 8.81672V2.18432H0.5V22.7835H4.2223V21.7606C5.50472 22.6609 7.06655 23.1898 8.7519 23.1898C13.1126 23.1898 16.6476 19.6525 16.6476 15.2888C16.6476 10.9251 13.1124 7.38752 8.7519 7.38752ZM8.39742 19.7389C6.01989 19.7389 4.09255 17.745 4.09255 15.2854C4.09255 12.8259 6.01989 10.832 8.39742 10.832C10.7749 10.832 12.7023 12.8259 12.7023 15.2854C12.7023 17.745 10.7749 19.7389 8.39742 19.7389ZM21.1825 0.5H22.6714V24.5H21.1825V0.5Z" fill="white" stroke="white" stroke-miterlimit="10"/>
</svg>
