<svg preserveAspectRatio="none" width="100%" height="100%" overflow="visible" style="display: block;" viewBox="0 0 24 24" fill="none" xmlns="http://www.w3.org/2000/svg">
<g id="Frame 36096" clip-path="url(#clip0_0_7)">
<path id="Vector" d="M12.388 20C12.388 20 19.656 20 21.4584 19.52C21.9463 19.3903 22.3919 19.1353 22.7508 18.7802C23.1098 18.4252 23.3697 17.9825 23.5048 17.496C24 15.72 24 11.984 24 11.984C24 11.984 24 8.272 23.504 6.512C23.3743 6.02311 23.1164 5.57773 22.7569 5.2219C22.3974 4.86607 21.9494 4.61271 21.4592 4.488C19.656 4 12.388 4 12.388 4C12.388 4 5.136 4 3.3416 4.488C2.85193 4.61758 2.40439 4.87231 2.04294 5.22717C1.68149 5.58202 1.41857 6.0248 1.28 6.512C0.8 8.272 0.8 11.984 0.8 11.984C0.8 11.984 0.8 15.72 1.2792 17.496C1.42274 17.9808 1.68742 18.421 2.04826 18.7751C2.4091 19.1292 2.85421 19.3856 3.3416 19.52C5.136 20 12.388 20 12.388 20Z" fill="white"/>
<path id="Vector_2" d="M16 12L10 8.6V15.4L16 12Z" fill="black"/>
</g>
<defs>
<clipPath id="clip0_0_7">
<rect width="24" height="24" fill="white"/>
</clipPath>
</defs>
</svg>
