<svg preserveAspectRatio="none" width="100%" height="100%" overflow="visible" style="display: block;" viewBox="0 0 24 24" fill="none" xmlns="http://www.w3.org/2000/svg">
<g id="Group">
<path id="Vector" fill-rule="evenodd" clip-rule="evenodd" d="M22.2617 0H1.80914C0.830857 0 0 0.773714 0 1.72686V22.272C0 23.2263 0.545143 24 1.52343 24H21.976C22.9554 24 24 23.2263 24 22.272V1.72686C24 0.773714 23.2411 0 22.2617 0Z" fill="black"/>
<path id="Vector_2" fill-rule="evenodd" clip-rule="evenodd" d="M22.2617 0H1.80914C0.830857 0 0 0.773714 0 1.72686V22.272C0 23.2263 0.545143 24 1.52343 24H21.976C22.9554 24 24 23.2263 24 22.272V1.72686C24 0.773714 23.2411 0 22.2617 0ZM9.14286 9.14286H12.3737V10.7897H12.4091C12.9017 9.90171 14.3566 9 16.1554 9C19.608 9 20.5714 10.8331 20.5714 14.2286V20.5714H17.1429V14.8537C17.1429 13.3337 16.536 12 15.1166 12C13.3931 12 12.5714 13.1669 12.5714 15.0823V20.5714H9.14286V9.14286ZM3.42857 20.5714H6.85714V9.14286H3.42857V20.5714ZM7.28571 5.14286C7.29238 5.42835 7.24192 5.71229 7.13729 5.978C7.03267 6.24372 6.87599 6.48583 6.67646 6.69013C6.47693 6.89443 6.23859 7.05679 5.97542 7.16766C5.71225 7.27854 5.42959 7.33569 5.14402 7.33577C4.85845 7.33584 4.57574 7.27884 4.31252 7.16811C4.04929 7.05737 3.81085 6.89514 3.61121 6.69095C3.41158 6.48676 3.25477 6.24472 3.15001 5.97907C3.04524 5.71341 2.99462 5.42949 3.00114 5.144C3.01392 4.58439 3.24516 4.052 3.6454 3.66069C4.04565 3.26937 4.58311 3.0502 5.14287 3.05005C5.70262 3.0499 6.24022 3.26879 6.64067 3.65989C7.04112 4.05099 7.27264 4.58326 7.28571 5.14286Z" fill="white"/>
</g>
</svg>
