<svg preserveAspectRatio="none" width="100%" height="100%" overflow="visible" style="display: block;" viewBox="0 0 24 24" fill="none" xmlns="http://www.w3.org/2000/svg">
<g id="Frame 36095" clip-path="url(#clip0_0_5)">
<path id="Vector" d="M12.0011 0C8.73977 0 8.33046 0.0142824 7.04953 0.0725117C5.77105 0.130985 4.89847 0.333262 4.13489 0.630024C3.34507 0.93643 2.67501 1.34648 2.00751 2.01373C1.33952 2.68075 0.92923 3.3502 0.621481 4.13929C0.323743 4.90249 0.1211 5.77471 0.0636031 7.05173C0.00622831 8.33168 -0.00878708 8.74099 -0.00878708 12C-0.00878708 15.259 0.00586195 15.6667 0.0638471 16.9467C0.122565 18.2242 0.325085 19.0963 0.621725 19.8592C0.928742 20.6485 1.33903 21.318 2.00678 21.9849C2.67403 22.6524 3.34398 23.0634 4.13331 23.37C4.89749 23.6667 5.77032 23.869 7.04843 23.9275C8.32948 23.9857 8.73855 24 11.9998 24C15.2613 24 15.6693 23.9857 16.9503 23.9275C18.2288 23.8689 19.1025 23.6667 19.8666 23.37C20.6561 23.0636 21.3251 22.6524 21.9924 21.9849C22.6604 21.318 23.0706 20.6485 23.3784 19.8595C23.6736 19.0963 23.8762 18.2239 23.9363 16.9469C23.9939 15.667 24.0088 15.259 24.0088 12C24.0088 8.74099 23.9939 8.33204 23.9363 7.05197C23.8762 5.77447 23.6736 4.90249 23.3784 4.13953C23.0706 3.3502 22.6604 2.68075 21.9924 2.01373C21.3244 1.34623 20.6564 0.936186 19.8658 0.630024C19.1002 0.333262 18.227 0.130985 16.9486 0.0725117C15.6677 0.0142824 15.2599 0 11.9974 0H12.0011ZM10.9239 2.16254C11.2436 2.16193 11.6003 2.16254 12.0012 2.16254C15.2076 2.16254 15.5876 2.17402 16.8538 2.23151C18.0246 2.28498 18.6601 2.48054 19.0835 2.64473C19.6438 2.86227 20.0435 3.12229 20.4635 3.54222C20.8838 3.96216 21.144 4.36219 21.3621 4.92227C21.5265 5.34465 21.7223 5.97967 21.7757 7.14975C21.8332 8.41469 21.8458 8.7947 21.8458 11.9973C21.8458 15.1997 21.8332 15.5797 21.7757 16.8448C21.7221 18.0147 21.5265 18.6497 21.3621 19.0722C21.1444 19.6322 20.8838 20.031 20.4635 20.4507C20.0432 20.8706 19.6442 21.1306 19.0835 21.3482C18.6606 21.5132 18.0246 21.7083 16.8538 21.7618C15.5879 21.8191 15.2076 21.8317 12.0012 21.8317C8.79458 21.8317 8.41456 21.8193 7.14853 21.7618C5.97772 21.7077 5.34221 21.5123 4.91873 21.3479C4.35829 21.1305 3.95801 20.8705 3.53771 20.4505C3.11728 20.0305 2.85715 19.6315 2.639 19.0713C2.47457 18.6488 2.27876 18.0137 2.22541 16.8438C2.16792 15.5787 2.15632 15.1987 2.15632 11.9943C2.15632 8.78982 2.16792 8.41176 2.22541 7.1467C2.279 5.97675 2.47457 5.34172 2.639 4.91873C2.85666 4.35878 3.11728 3.95874 3.53771 3.53868C3.95801 3.11875 4.35829 2.85873 4.91873 2.64071C5.34196 2.47578 5.97772 2.28071 7.14853 2.22687C8.25636 2.17695 8.68569 2.16193 10.9239 2.15949V2.16254ZM18.4115 4.15503C17.6159 4.15503 16.9704 4.79922 16.9704 5.59453C16.9704 6.38948 17.6159 7.03452 18.4115 7.03452C19.207 7.03452 19.8525 6.38948 19.8525 5.59453C19.8525 4.79946 19.207 4.15442 18.4115 4.15442V4.15503ZM12.0011 5.83746C8.59523 5.83746 5.83392 8.5967 5.83392 12C5.83392 15.4032 8.59523 18.1612 12.0011 18.1612C15.4068 18.1612 18.1671 15.4032 18.1671 12C18.1671 8.5967 15.4066 5.83746 12.0009 5.83746H12.0011ZM12.0011 8C14.2117 8 16.004 9.79083 16.004 12C16.004 14.2089 14.2117 16 12.0011 16C9.79022 16 7.99805 14.2089 7.99805 12C7.99805 9.79071 9.7901 8 12.0011 8Z" fill="white"/>
</g>
<defs>
<clipPath id="clip0_0_5">
<rect width="24" height="24" fill="white"/>
</clipPath>
</defs>
</svg>
