<svg preserveAspectRatio="none" width="100%" height="100%" overflow="visible" style="display: block;" viewBox="0 0 24 24" fill="none" xmlns="http://www.w3.org/2000/svg">
<g id="Frame 36099">
<path id="Vector" d="M13.5374 12.4999C13.5374 16.2723 10.507 19.3305 6.76859 19.3305C3.03022 19.3305 0 16.2732 0 12.4999C0 8.72658 3.03045 5.66946 6.76859 5.66946C10.5067 5.66946 13.5374 8.7275 13.5374 12.4999ZM20.9629 12.4999C20.9629 16.0511 19.4475 18.9297 17.5785 18.9297C15.7094 18.9297 14.1941 16.0502 14.1941 12.4999C14.1941 8.94957 15.7094 6.07006 17.5785 6.07006C19.4475 6.07006 20.9629 8.94957 20.9629 12.4999ZM24 12.4999C24 15.6816 23.467 18.2607 22.8097 18.2607C22.1523 18.2607 21.6193 15.6807 21.6193 12.4999C21.6193 9.31906 22.1523 6.73902 22.8099 6.73902C23.4675 6.73902 24 9.31837 24 12.4999Z" fill="white"/>
</g>
</svg>
