<svg preserveAspectRatio="none" width="100%" height="100%" overflow="visible" style="display: block;" viewBox="0 0 56 56" fill="none" xmlns="http://www.w3.org/2000/svg">
<g id="plus">
<path id="Vector (Stroke)" d="M27.2322 46.6666V28.7506H9.31518C8.90109 28.7506 8.56538 28.4146 8.56518 28.0006C8.56518 27.5864 8.90097 27.2506 9.31518 27.2506H27.2322V9.33361C27.2322 8.9194 27.568 8.58361 27.9822 8.58361C28.3962 8.58381 28.7322 8.91952 28.7322 9.33361V27.2506H46.6482C47.0624 27.2506 47.3982 27.5864 47.3982 28.0006C47.398 28.4146 47.0623 28.7506 46.6482 28.7506H28.7322V46.6666C28.7322 47.0807 28.3962 47.4164 27.9822 47.4166C27.568 47.4166 27.2322 47.0808 27.2322 46.6666Z" fill="var(--fill-0, white)" fill-opacity="0.3"/>
</g>
</svg>
