<svg width="24" height="24" viewBox="0 0 24 24" fill="none" xmlns="http://www.w3.org/2000/svg">
<path d="M18.5 11.4004C18.8313 11.4004 19.0996 11.6686 19.0996 12C19.0996 12.3314 18.8313 12.5996 18.5 12.5996H4.99997C4.6686 12.5996 4.40036 12.3314 4.40036 12C4.40036 11.6686 4.6686 11.4004 4.99997 11.4004H18.5Z" fill="#6367B8"/>
<path d="M18.4004 12C18.4004 11.9694 18.3765 11.8431 18.2285 11.5977C18.0906 11.3688 17.882 11.0972 17.6133 10.793C17.0766 10.1856 16.3489 9.50501 15.6064 8.86035C14.867 8.21833 14.1258 7.62351 13.5684 7.18848C13.2901 6.97131 13.0584 6.79416 12.8965 6.67188C12.8156 6.61082 12.752 6.56328 12.709 6.53125C12.6876 6.51532 12.6711 6.50319 12.6602 6.49512C12.6547 6.49108 12.6501 6.48829 12.6475 6.48633L12.6445 6.4834C12.3778 6.28698 12.3204 5.91133 12.5166 5.64453C12.7131 5.37771 13.0896 5.32107 13.3564 5.51758H13.3574C13.3582 5.51815 13.359 5.51948 13.3604 5.52051C13.3634 5.52276 13.3683 5.52603 13.374 5.53027C13.3858 5.53902 13.4033 5.5526 13.4258 5.56934C13.4706 5.60276 13.5362 5.65126 13.6191 5.71387C13.7854 5.83941 14.0226 6.02049 14.3066 6.24219C14.8742 6.68508 15.6331 7.29384 16.3936 7.9541C17.1509 8.61166 17.9235 9.33235 18.5117 9.99805C18.8053 10.3303 19.0657 10.6632 19.2559 10.9785C19.436 11.2774 19.5996 11.6353 19.5996 12C19.5996 12.3647 19.436 12.7226 19.2559 13.0215C19.0657 13.3368 18.8053 13.6697 18.5117 14.002C17.9235 14.6676 17.1509 15.3883 16.3936 16.0459C15.6331 16.7062 14.8742 17.3149 14.3066 17.7578C14.0226 17.9795 13.7854 18.1606 13.6191 18.2861C13.5362 18.3487 13.4706 18.3972 13.4258 18.4307C13.4033 18.4474 13.3858 18.461 13.374 18.4697C13.3683 18.474 13.3634 18.4772 13.3604 18.4795C13.359 18.4805 13.3582 18.4818 13.3574 18.4824H13.3564C13.0896 18.6789 12.7131 18.6223 12.5166 18.3555C12.3204 18.0887 12.3778 17.713 12.6445 17.5166L12.6475 17.5137C12.6501 17.5117 12.6547 17.5089 12.6602 17.5049C12.6711 17.4968 12.6876 17.4847 12.709 17.4687C12.752 17.4367 12.8156 17.3892 12.8965 17.3281C13.0584 17.2058 13.2901 17.0287 13.5684 16.8115C14.1258 16.3765 14.867 15.7817 15.6064 15.1396C16.3489 14.495 17.0766 13.8144 17.6133 13.207C17.882 12.9029 18.0906 12.6312 18.2285 12.4023C18.3765 12.1569 18.4004 12.0305 18.4004 12Z" fill="#6367B8"/>
</svg>
