<svg preserveAspectRatio="none" width="100%" height="100%" overflow="visible" style="display: block;" viewBox="0 0 91.4667 14.4" fill="none" xmlns="http://www.w3.org/2000/svg">
<g id="adobaRo">
<path id="Vector" d="M91.4667 9.08143C91.4667 11.8846 89.1243 14.3998 85.8411 14.3998C82.4427 14.3998 80.1771 11.8846 80.1771 9.08143C80.1771 6.14383 82.3659 3.80143 85.8411 3.80143C89.2779 3.80143 91.4667 6.22063 91.4667 9.08143ZM89.6235 9.08143C89.6235 7.14223 88.1643 5.04943 85.8411 5.04943C83.4795 5.04943 82.0395 7.14223 82.0395 9.08143C82.0395 10.9054 83.1723 13.1518 85.8411 13.1518C88.4715 13.1518 89.6235 10.9054 89.6235 9.08143Z" fill="var(--fill-0, #CD313A)"/>
<path id="Vector_2" d="M75.8495 9.19692L78.3263 13.5553C78.5183 13.8625 78.2687 14.1697 77.8079 14.1697H76.9055C76.7327 14.1697 76.4447 14.0353 76.3871 13.9201L74.0255 9.44651C73.3727 8.33291 72.1823 8.14092 71.5487 8.14092H69.7055V13.7473C69.7055 13.9777 69.4367 14.1697 69.1295 14.1697H68.4575C68.1503 14.1697 67.8815 13.9777 67.8815 13.7473V0.806515C67.8815 0.576114 68.1503 0.384115 68.4575 0.384115H71.4719C74.4671 0.384115 77.5007 1.01771 77.5007 4.16651C77.5007 5.56812 76.2719 7.10411 73.9871 7.48812V7.52652C75.0815 7.83372 75.5039 8.60171 75.8495 9.19692ZM75.5423 4.20491C75.5423 3.09132 74.7935 1.92012 72.2207 1.92012H69.7055V6.62412H71.6255C74.0255 6.62412 75.5423 5.49132 75.5423 4.20491Z" fill="var(--fill-0, #CD313A)"/>
<path id="Vector_3" d="M58.808 3.80143C61.784 3.80143 64.1072 5.99023 64.1072 9.50383V14.3806H62.4752V12.883C61.5344 13.843 60.2672 14.3998 58.808 14.3998C55.6208 14.3998 53.4896 11.8846 53.4896 9.08143C53.4896 6.14383 55.544 3.80143 58.808 3.80143ZM62.3792 9.08143C62.3792 7.14223 60.9968 5.04943 58.808 5.04943C56.6 5.04943 55.2368 7.14223 55.2368 9.08143C55.2368 10.9054 56.2928 13.1518 58.808 13.1518C61.304 13.1518 62.3792 10.9054 62.3792 9.08143Z" fill="var(--fill-0, #475569)"/>
<path id="Vector_4" d="M51.3693 8.8704C51.3693 11.5584 49.8717 14.4 46.5117 14.4C44.7069 14.4 43.3821 13.7856 42.5181 12.7104H42.4797C42.4605 13.1904 42.4797 13.4016 42.4797 13.7472C42.4797 13.9776 42.2109 14.1696 41.9037 14.1696H41.4045C41.0973 14.1696 40.8477 13.9776 40.8477 13.7472V0.4224C40.8477 0.192 41.0973 0 41.4045 0H41.9805C42.2877 0 42.5565 0.192 42.5565 0.4224V5.4144H42.6141C43.5549 4.2432 45.0333 3.8016 46.4733 3.8016C49.6413 3.8016 51.3693 6.2784 51.3693 8.8704ZM49.5261 9.0624C49.5261 7.008 48.5469 5.0496 46.1661 5.0496C43.7853 5.0496 42.5565 7.0272 42.5565 9.1392C42.5565 11.0016 43.6701 13.152 46.1661 13.152C48.5085 13.152 49.5261 10.7904 49.5261 9.0624Z" fill="var(--fill-0, #475569)"/>
<path id="Vector_5" d="M37.9771 9.08143C37.9771 11.8846 35.6347 14.3998 32.3515 14.3998C28.9531 14.3998 26.6875 11.8846 26.6875 9.08143C26.6875 6.14383 28.8763 3.80143 32.3515 3.80143C35.7883 3.80143 37.9771 6.22063 37.9771 9.08143ZM36.1339 9.08143C36.1339 7.14223 34.6747 5.04943 32.3515 5.04943C29.9899 5.04943 28.5499 7.14223 28.5499 9.08143C28.5499 10.9054 29.6827 13.1518 32.3515 13.1518C34.9819 13.1518 36.1339 10.9054 36.1339 9.08143Z" fill="var(--fill-0, #475569)"/>
<path id="Vector_6" d="M23.8377 0.4224V13.7472C23.8377 13.9776 23.5689 14.1696 23.2617 14.1696H22.7817C22.4745 14.1696 22.2057 13.9776 22.2057 13.7472V12.672H22.1673C21.3225 13.8624 19.6713 14.4 18.1545 14.4C14.8137 14.4 13.2969 11.52 13.2969 8.8704C13.2969 6.2784 15.0249 3.8016 18.2121 3.8016C20.2089 3.8016 21.4953 4.4928 22.0713 5.4528H22.1097V0.4224C22.1097 0.192 22.3785 0 22.6857 0H23.2617C23.5689 0 23.8377 0.192 23.8377 0.4224ZM22.1097 9.1392C22.1097 7.0272 20.9001 5.0496 18.5193 5.0496C16.1385 5.0496 15.1593 6.9888 15.1593 9.0624C15.1593 10.752 16.1769 13.152 18.5193 13.152C21.0153 13.152 22.1097 10.9632 22.1097 9.1392Z" fill="var(--fill-0, #475569)"/>
<path id="Vector_7" d="M5.3184 3.80143C8.2944 3.80143 10.6176 5.99023 10.6176 9.50383V14.3806H8.9856V12.883C8.0448 13.843 6.7776 14.3998 5.3184 14.3998C2.1312 14.3998 0 11.8846 0 9.08143C0 6.14383 2.0544 3.80143 5.3184 3.80143ZM8.8896 9.08143C8.8896 7.14223 7.5072 5.04943 5.3184 5.04943C3.1104 5.04943 1.7472 7.14223 1.7472 9.08143C1.7472 10.9054 2.8032 13.1518 5.3184 13.1518C7.8144 13.1518 8.8896 10.9054 8.8896 9.08143Z" fill="var(--fill-0, #475569)"/>
</g>
</svg>
