<svg preserveAspectRatio="none" width="100%" height="100%" overflow="visible" style="display: block;" viewBox="0 0 30.3107 32" fill="none" xmlns="http://www.w3.org/2000/svg">
<g id="ro">
<path id="Exclude" d="M20.3917 12.1906C25.8894 12.1906 30.3387 16.6117 30.3105 22.1095C30.3105 27.579 25.8895 32 20.3917 32C14.9223 31.9999 10.5018 27.579 10.5018 22.1095C10.5018 21.317 10.5939 20.5471 10.7675 19.8094H17.0433C18.2739 19.8094 19.0438 18.4783 18.4303 17.4117L16.0171 13.2159C16.0662 13.1904 16.1144 13.1626 16.1628 13.136C17.4444 12.5295 18.8779 12.1907 20.3917 12.1906ZM12.791 0C16.6397 0 19.781 3.14135 19.781 6.99003C19.7809 9.6193 18.3185 11.9493 16.1628 13.136C13.4813 14.4047 11.465 16.8458 10.7675 19.8094L10.7669 13.9581C10.7669 13.5482 10.4346 13.2159 10.0247 13.2159C9.61473 13.2159 9.28242 13.5482 9.28242 13.9582V17.6477C9.28242 18.8259 8.32729 19.781 7.14908 19.781H2.13333C0.955126 19.781 0 18.8259 0 17.6477V2.13333C0 0.955125 0.955126 0 2.13333 0H12.791Z" fill="var(--fill-0, #CD313A)"/>
</g>
</svg>
