<svg preserveAspectRatio="none" width="100%" height="100%" overflow="visible" style="display: block;" viewBox="0 0 32 32" fill="none" xmlns="http://www.w3.org/2000/svg">
<g id="arrow-right-02">
<path id="Vector (Stroke)" d="M24.6666 15.2005C25.1085 15.2005 25.4661 15.5582 25.4661 16C25.4661 16.4418 25.1085 16.7995 24.6666 16.7995H6.66663C6.2248 16.7995 5.86715 16.4418 5.86715 16C5.86715 15.5582 6.2248 15.2005 6.66663 15.2005H24.6666Z" fill="var(--fill-0, #0F172A)"/>
<path id="Vector (Stroke)_2" d="M24.5339 16C24.5339 15.9593 24.5019 15.7907 24.3047 15.4635C24.1207 15.1585 23.8427 14.7962 23.4844 14.3906C22.7688 13.5807 21.7986 12.6733 20.8086 11.8138C19.8227 10.9578 18.8344 10.1647 18.0911 9.58464C17.7201 9.29508 17.4112 9.05888 17.1953 8.89583C17.0875 8.81442 17.0026 8.75104 16.9453 8.70833C16.9168 8.68709 16.8947 8.67092 16.8802 8.66016C16.8729 8.65478 16.8668 8.65106 16.8633 8.64844L16.8594 8.64453C16.5038 8.38264 16.4272 7.88177 16.6888 7.52604C16.9508 7.17028 17.4528 7.09477 17.8086 7.35677H17.8099C17.8109 7.35753 17.8119 7.3593 17.8138 7.36068C17.8179 7.36367 17.8244 7.36804 17.832 7.3737C17.8478 7.38536 17.8711 7.40347 17.901 7.42578C17.9608 7.47034 18.0483 7.53501 18.1589 7.61849C18.3805 7.78587 18.6967 8.02733 19.0755 8.32292C19.8322 8.91344 20.8441 9.72512 21.8581 10.6055C22.8679 11.4822 23.898 12.4431 24.6823 13.3307C25.0737 13.7737 25.421 14.2175 25.6745 14.638C25.9147 15.0366 26.1328 15.5137 26.1328 16C26.1328 16.4863 25.9147 16.9635 25.6745 17.362C25.421 17.7824 25.0737 18.2263 24.6823 18.6693C23.898 19.5569 22.8679 20.5178 21.8581 21.3945C20.8441 22.2749 19.8322 23.0866 19.0755 23.6771C18.6967 23.9727 18.3805 24.2141 18.1589 24.3815C18.0483 24.465 17.9608 24.5297 17.901 24.5742C17.8711 24.5965 17.8478 24.6146 17.832 24.6263C17.8244 24.632 17.8179 24.6363 17.8138 24.6393C17.8119 24.6407 17.8109 24.6425 17.8099 24.6432H17.8086C17.4528 24.9052 16.9508 24.8297 16.6888 24.474C16.4272 24.1182 16.5038 23.6174 16.8594 23.3555L16.8633 23.3516C16.8668 23.3489 16.8729 23.3452 16.8802 23.3398C16.8947 23.3291 16.9168 23.3129 16.9453 23.2917C17.0026 23.249 17.0875 23.1856 17.1953 23.1042C17.4112 22.9411 17.7201 22.7049 18.0911 22.4154C18.8344 21.8353 19.8227 21.0422 20.8086 20.1862C21.7986 19.3266 22.7688 18.4193 23.4844 17.6094C23.8427 17.2038 24.1207 16.8415 24.3047 16.5365C24.5019 16.2093 24.5339 16.0407 24.5339 16Z" fill="var(--fill-0, #0F172A)"/>
</g>
</svg>
