<svg preserveAspectRatio="none" width="100%" height="100%" overflow="visible" style="display: block;" viewBox="0 0 17.3958 17.3958" fill="none" xmlns="http://www.w3.org/2000/svg">
<g id="menu-01">
<path id="Vector (Stroke)" d="M14.4966 3.1896C14.7368 3.1896 14.9312 3.38403 14.9312 3.62421C14.9312 3.8644 14.7368 4.05883 14.4966 4.05883H2.89935C2.65917 4.05883 2.46474 3.8644 2.46474 3.62421C2.46474 3.38403 2.65917 3.1896 2.89935 3.1896H14.4966Z" fill="#718096"/>
<path id="Vector (Stroke)_2" d="M14.4966 8.26331C14.7368 8.26331 14.9312 8.45774 14.9312 8.69793C14.9312 8.93811 14.7368 9.13254 14.4966 9.13254H2.89935C2.65917 9.13254 2.46474 8.93811 2.46474 8.69793C2.46474 8.45774 2.65917 8.26331 2.89935 8.26331H14.4966Z" fill="#718096"/>
<path id="Vector (Stroke)_3" d="M14.4966 13.3372C14.7368 13.3372 14.9312 13.5317 14.9312 13.7719C14.9312 14.012 14.7368 14.2065 14.4966 14.2065H2.89935C2.65917 14.2065 2.46474 14.012 2.46474 13.7719C2.46474 13.5317 2.65917 13.3372 2.89935 13.3372H14.4966Z" fill="#718096"/>
</g>
</svg>
