<svg preserveAspectRatio="none" width="100%" height="100%" overflow="visible" style="display: block;" viewBox="0 0 32 32" fill="none" xmlns="http://www.w3.org/2000/svg">
<g id="arrow-left-01">
<path id="Vector (Stroke)" d="M11 16C11 15.4582 11.2415 14.9425 11.487 14.5352C11.7491 14.1003 12.1045 13.6455 12.5 13.1979C13.2929 12.3006 14.3314 11.3334 15.3438 10.4544C16.3612 9.57102 17.377 8.7572 18.1354 8.16536C18.5148 7.86926 18.8311 7.62751 19.0534 7.45964C19.1646 7.37565 19.2523 7.30919 19.3125 7.26432C19.3423 7.24209 19.3657 7.22528 19.3815 7.21354C19.3891 7.2079 19.3956 7.20362 19.3997 7.20052C19.4017 7.19905 19.4038 7.19745 19.4049 7.19661L19.4063 7.19531H19.4076C19.8522 6.86791 20.4772 6.9629 20.8047 7.40755C21.1321 7.85224 21.0371 8.47721 20.5924 8.80469V8.80599C20.5917 8.80655 20.5902 8.80738 20.5885 8.80859C20.5851 8.8111 20.5798 8.81518 20.5729 8.82031C20.5585 8.83096 20.5363 8.84728 20.5078 8.86849C20.4509 8.91091 20.3665 8.97358 20.2591 9.05469C20.0439 9.2172 19.7349 9.45322 19.3646 9.74219C18.6231 10.3209 17.6385 11.112 16.6563 11.9648C15.669 12.822 14.7069 13.7222 14 14.5221C13.6455 14.9234 13.3759 15.2769 13.2005 15.5677C13.0087 15.8859 13 16.015 13 16C13 15.9851 13.0088 16.1142 13.2005 16.4323C13.3759 16.7231 13.6455 17.0766 14 17.4779C14.7069 18.2779 15.669 19.178 16.6563 20.0352C17.6385 20.8879 18.6231 21.6791 19.3646 22.2578C19.7349 22.5468 20.0439 22.7828 20.2591 22.9453C20.3665 23.0264 20.4509 23.0891 20.5078 23.1315C20.5363 23.1527 20.5585 23.169 20.5729 23.1797C20.5798 23.1848 20.5852 23.1889 20.5885 23.1914C20.5902 23.1926 20.5917 23.1935 20.5924 23.194V23.1953C21.0371 23.5228 21.1321 24.1478 20.8047 24.5924C20.4772 25.0371 19.8522 25.1321 19.4076 24.8047H19.4063L19.4049 24.8034C19.4038 24.8025 19.4017 24.8009 19.3997 24.7995C19.3956 24.7964 19.3891 24.7921 19.3815 24.7865C19.3657 24.7747 19.3423 24.7579 19.3125 24.7357C19.2523 24.6908 19.1646 24.6243 19.0534 24.5404C18.8311 24.3725 18.5148 24.1307 18.1354 23.8346C17.377 23.2428 16.3612 22.429 15.3438 21.5456C14.3314 20.6666 13.2929 19.6995 12.5 18.8021C12.1045 18.3545 11.7491 17.8997 11.487 17.4648C11.2415 17.0575 11 16.5418 11 16Z" fill="var(--fill-0, #0F172A)" fill-opacity="0.2"/>
</g>
</svg>
