<svg preserveAspectRatio="none" width="100%" height="100%" overflow="visible" style="display: block;" viewBox="0 0 32 32" fill="none" xmlns="http://www.w3.org/2000/svg">
<g id="arrow-right-01">
<path id="Vector (Stroke)" d="M19 16C19 16.015 18.9913 15.8859 18.7995 15.5677C18.6242 15.2769 18.3545 14.9234 18 14.5221C17.2932 13.7223 16.3321 12.8219 15.3451 11.9648C14.3628 11.112 13.377 10.3209 12.6354 9.74219C12.2651 9.45322 11.9561 9.2172 11.7409 9.05469C11.6335 8.9736 11.5491 8.91091 11.4922 8.86849C11.4639 8.84743 11.4427 8.83095 11.4284 8.82031C11.4212 8.81499 11.4149 8.81116 11.4115 8.80859C11.4098 8.8074 11.4083 8.80654 11.4076 8.80599V8.80469C10.9629 8.47721 10.8679 7.85224 11.1953 7.40755C11.5228 6.96291 12.1478 6.86795 12.5924 7.19531H12.5938L12.5951 7.19661C12.5962 7.19746 12.5982 7.19903 12.6003 7.20052C12.6045 7.20362 12.6108 7.20788 12.6185 7.21354C12.6343 7.22528 12.6577 7.24208 12.6875 7.26432C12.7477 7.30919 12.8354 7.37565 12.9466 7.45964C13.1689 7.62756 13.4863 7.86913 13.8659 8.16536C14.6242 8.75717 15.639 9.5712 16.6563 10.4544C17.6686 11.3334 18.7071 12.3005 19.5 13.1979C19.8955 13.6455 20.2509 14.1003 20.513 14.5352C20.7585 14.9425 21 15.4582 21 16C21 16.5418 20.7585 17.0575 20.513 17.4648C20.2509 17.8997 19.8955 18.3545 19.5 18.8021C18.7071 19.6995 17.6686 20.6666 16.6563 21.5456C15.6388 22.429 14.623 23.2428 13.8646 23.8346C13.4852 24.1307 13.1689 24.3725 12.9466 24.5404C12.8354 24.6243 12.7477 24.6908 12.6875 24.7357C12.6577 24.7579 12.6343 24.7747 12.6185 24.7865C12.6109 24.7921 12.6045 24.7964 12.6003 24.7995C12.5983 24.8009 12.5962 24.8025 12.5951 24.8034L12.5938 24.8047H12.5924C12.1478 25.1321 11.5228 25.0371 11.1953 24.5924C10.8679 24.1478 10.9629 23.5228 11.4076 23.1953V23.194C11.4083 23.1935 11.4098 23.1926 11.4115 23.1914C11.4149 23.1889 11.4202 23.1848 11.4271 23.1797C11.4415 23.169 11.4637 23.1527 11.4922 23.1315C11.5491 23.0891 11.6335 23.0264 11.7409 22.9453C11.9561 22.7828 12.2651 22.5468 12.6354 22.2578C13.3769 21.6791 14.3615 20.8879 15.3438 20.0352C16.331 19.178 17.2931 18.2779 18 17.4779C18.3545 17.0766 18.6241 16.7231 18.7995 16.4323C18.9912 16.1141 19 15.9851 19 16Z" fill="var(--fill-0, #0F172A)"/>
</g>
</svg>
